# xmcd
#
# Track frame offsets: 
#        182
#        8302
#        18390
#        35465
#        50112
#        65420
#        79745
#        114282
#        123650
#        127172
#        142552
#        154735
#        166382
#        182480
#        201130
#        217072
#
# Disc length: 3227 seconds
#
# Revision: 13
# Processed by: cddbd v1.5.2PL0 Copyright (c) Steve Scherf et al.
# Submitted via: ExactAudioCopyFreeDBPlugin 1.0
#
DISCID=d40c9910
DTITLE=Various Artist - The Tarantino Connection
DYEAR=1996
DGENRE=Soundtrack
TTITLE0=Quentin Tarantino - Interview (Spoken Word)
TTITLE1=Dick Dale and His Del-Tones - Misirlou (Pulp Fiction)
TTITLE2=The Blasters - Dark Night (From Dusk Till Dawn)
TTITLE3=George Baker Selection - Little Green Bag (Reservoir Dogs)
TTITLE4=Charlie Sexton - Graceland (True Romance)
TTITLE5=Urge Overkill - Girl (Pulp Fiction)
TTITLE6=Leonard Cohen - Waiting For The Miracle (Natural Born Killers)
TTITLE7=Burl Ives - A Little Bitty Tear (True Romance)
TTITLE8=Quentin Tarantino - Interview (Spoken Word)
TTITLE9=Stealers Wheel - Stuck In The Middle With You (Reservoir Dogs)
TTITLE10=Chuck Berry - You Never Can Tell (Pulp Fiction)
TTITLE11=Robert Palmer - Love Is (The Tender Trap) (True Romance)
TTITLE12=Cowboy Junkies - Sweet Jane (Natural Born Killers)
TTITLE13=Dire Straits - Six Blade Knife (Desperado)
TTITLE14=The Mavericks - Foolish Heart (From Dusk Till Dawn)
TTITLE15=Combustible Edison - Vertigogo (Closing Credits) (Four Rooms)
EXTD=YEAR: 1996
EXTT0=
EXTT1=Dick Dale and his Del-Tones
EXTT2=The Blasters
EXTT3=George Baker Selection
EXTT4=Charlie Sexton
EXTT5=Urge Overkill
EXTT6=Leonard Cohen
EXTT7=Burl Ives
EXTT8=
EXTT9=Stealers Wheel
EXTT10=Chuck Berry
EXTT11=Robert Palmer
EXTT12=Cowboy Junkies
EXTT13=Dire Straits
EXTT14=The Mavericks
EXTT15=Combustible Edison
PLAYORDER=
